HIERARCHY
ROOT Hips
{
	OFFSET 50.124599 8.402761 54.827000
	CHANNELS 6 Xposition Yposition Zposition Xrotation Yrotation Zrotation
	JOINT spine
	{
		OFFSET 0.000000 -0.342408 5.954380
		CHANNELS 3 Xrotation Yrotation Zrotation
		JOINT spine1
		{
			OFFSET 0.000000 -0.000002 8.856018
			CHANNELS 3 Xrotation Yrotation Zrotation
			JOINT spine2
			{
				OFFSET 0.000000 -0.000001 8.485672
				CHANNELS 3 Xrotation Yrotation Zrotation
				JOINT Neck
				{
					OFFSET 0.000000 -1.038704 21.786301
					CHANNELS 3 Xrotation Yrotation Zrotation
					JOINT Head
					{
						OFFSET 0.000000 -0.000001 6.582199
						CHANNELS 3 Xrotation Yrotation Zrotation
						End Site
						{
							OFFSET 0.000000 5.254357 15.932602
						}
					}
				}
				JOINT RightShoulder
				{
					OFFSET -3.573071 0.497523 9.163857
					CHANNELS 3 Xrotation Yrotation Zrotation
					JOINT RightArm
					{
						OFFSET 0.000000 -0.000002 12.019203
						CHANNELS 3 Xrotation Yrotation Zrotation
						JOINT RightArmRoll
						{
							OFFSET 0.000000 -0.000001 6.067551
							CHANNELS 3 Xrotation Yrotation Zrotation
							JOINT RightForeArm
							{
								OFFSET 0.000000 -0.000003 17.672600
								CHANNELS 3 Xrotation Yrotation Zrotation
								JOINT RightForeArmRoll
								{
									OFFSET 0.000000 -0.000001 6.808716
									CHANNELS 3 Xrotation Yrotation Zrotation
									JOINT RightHand
									{
										OFFSET 0.000000 -0.000003 13.663605
										CHANNELS 3 Xrotation Yrotation Zrotation
										End Site
										{
											OFFSET 0.000000 0.000000 0.100006
										}
									}
								}
							}
						}
					}
				}
				JOINT LeftShoulder
				{
					OFFSET 3.573071 0.497523 9.163857
					CHANNELS 3 Xrotation Yrotation Zrotation
					JOINT LeftArm
					{
						OFFSET 0.000000 -0.000002 12.019203
						CHANNELS 3 Xrotation Yrotation Zrotation
						JOINT LeftArmRoll
						{
							OFFSET 0.000000 -0.000001 6.067551
							CHANNELS 3 Xrotation Yrotation Zrotation
							JOINT LeftForeArm
							{
								OFFSET 0.000000 -0.000003 17.672600
								CHANNELS 3 Xrotation Yrotation Zrotation
								JOINT LeftForeArmRoll
								{
									OFFSET 0.000000 -0.000001 6.808716
									CHANNELS 3 Xrotation Yrotation Zrotation
									JOINT LeftHand
									{
										OFFSET 0.000000 -0.000003 13.663605
										CHANNELS 3 Xrotation Yrotation Zrotation
										End Site
										{
											OFFSET 0.000000 0.000000 0.100006
										}
									}
								}
							}
						}
					}
				}
			}
		}
	}
	JOINT RightUpLeg
	{
		OFFSET -5.277740 0.811858 -0.967796
		CHANNELS 3 Xrotation Yrotation Zrotation
		JOINT RightUpLegRoll
		{
			OFFSET 0.000000 -0.000003 16.021397
			CHANNELS 3 Xrotation Yrotation Zrotation
			JOINT RightLeg
			{
				OFFSET 0.000000 0.000003 -19.840099
				CHANNELS 3 Xrotation Yrotation Zrotation
				JOINT RightLegRoll
				{
					OFFSET 0.000000 -0.000003 19.905003
					CHANNELS 3 Xrotation Yrotation Zrotation
					JOINT RightFoot
					{
						OFFSET 0.000000 -0.000003 16.567497
						CHANNELS 3 Xrotation Yrotation Zrotation
						JOINT RightToeBase
						{
							OFFSET 0.000000 -0.000002 13.849602
							CHANNELS 3 Xrotation Yrotation Zrotation
							End Site
							{
								OFFSET 0.005871 0.773115 6.707283
							}
						}
					}
				}
			}
		}
	}
	JOINT LeftUpLeg
	{
		OFFSET 5.277740 0.811858 -0.967796
		CHANNELS 3 Xrotation Yrotation Zrotation
		JOINT LeftUpLegRoll
		{
			OFFSET 0.000000 -0.000003 16.021503
			CHANNELS 3 Xrotation Yrotation Zrotation
			JOINT LeftLeg
			{
				OFFSET 0.000000 -0.000003 19.839996
				CHANNELS 3 Xrotation Yrotation Zrotation
				JOINT LeftLegRoll
				{
					OFFSET 0.000000 -0.000004 20.089005
					CHANNELS 3 Xrotation Yrotation Zrotation
					JOINT LeftFoot
					{
						OFFSET 0.000000 -0.000003 16.383499
						CHANNELS 3 Xrotation Yrotation Zrotation
						JOINT LeftToeBase
						{
							OFFSET 0.000000 -0.000002 13.849594
							CHANNELS 3 Xrotation Yrotation Zrotation
							End Site
							{
								OFFSET -0.026310 0.773116 6.707275
							}
						}
					}
				}
			}
		}
	}
}
MOTION
Frames: 12
Frame Time: 0.041667
50.839195 -29.254732 84.720566 -6.345739 -0.777450 -1.247888 -1.435689 0.054393 0.003350 1.131412 0.110935 0.008539 2.776494 0.111032 0.016439 18.001652 0.664930 -1.023720 3.214715 -2.211188 -0.831086 3.089522 -80.947755 0.813849 -64.163562 -108.705753 -62.850643 0.000001 -0.000000 0.000000 -0.026525 3.635610 -1.990668 0.000002 0.000005 -3.011610 -5.000172 -7.999930 0.000035 -10.128356 68.170629 12.413833 -34.818672 116.924274 43.042500 -0.000000 0.000004 0.000001 -0.024976 -3.643651 1.990833 -0.000005 -0.000009 3.011610 -5.000155 7.999948 -0.000013 0.336473 -176.956049 4.045117 -179.999991 0.000005 -1.174996 171.415250 -2.269309 -0.502479 0.000004 -0.000002 0.104145 68.999705 6.912195 2.079426 25.456964 -7.355618 0.000001 0.581952 178.791048 -0.226096 -0.000005 -0.000004 -1.160700 -10.530889 1.953312 0.490702 -0.000010 0.000003 -0.171476 70.040892 -6.882527 -2.078358 25.456948 7.355613 -0.000011 
50.829998 -29.257818 84.720779 -6.334721 -0.774017 -1.245095 -1.434908 0.054075 0.003350 1.132982 0.110139 0.008539 2.778054 0.110236 0.016494 17.995658 0.666415 -1.022999 3.219198 -2.211198 -0.830459 3.063916 -80.954079 0.786322 -64.194749 -108.716927 -62.882171 -0.000000 -0.000000 0.000000 -0.026525 3.635611 -1.990668 0.000004 0.000005 -3.011610 -5.000171 -7.999931 0.000035 -10.134623 68.167515 12.420698 -34.831817 116.935926 43.063414 0.000002 0.000003 0.000001 -0.024978 -3.643650 1.990833 -0.000005 -0.000009 3.011608 -5.000155 7.999948 -0.000013 0.317954 -176.965051 4.036335 -179.999991 0.000005 -1.174996 171.414252 -2.267330 -0.501223 0.000003 -0.000002 0.104145 68.996638 6.912167 2.079413 25.456964 -7.355619 0.000001 0.553479 178.789053 -0.223465 -0.000005 -0.000004 -1.160720 -10.548283 1.950518 0.490936 -0.000010 0.000003 -0.171444 70.041841 -6.882517 -2.078397 25.456952 7.355613 -0.000010 
50.831898 -29.246328 84.726166 -6.323951 -0.770742 -1.242365 -1.434151 0.053807 0.003350 1.134493 0.109437 0.008539 2.779574 0.109533 0.016575 17.989364 0.667599 -1.022293 3.223982 -2.211018 -0.829842 3.038149 -80.961101 0.758553 -64.227465 -108.727616 -62.914751 0.000001 0.000000 0.000000 -0.026524 3.635611 -1.990667 0.000005 0.000005 -3.011610 -5.000175 -7.999930 0.000035 -10.141216 68.164270 12.427913 -34.843278 116.948234 43.082552 -0.000001 0.000003 0.000000 -0.024979 -3.643651 1.990832 -0.000006 -0.000010 3.011608 -5.000156 7.999949 -0.000013 0.299977 -176.973043 4.027911 -179.999991 0.000005 -1.174996 171.413556 -2.264355 -0.500802 0.000004 -0.000002 0.104145 68.993483 6.912204 2.079417 25.456962 -7.355618 0.000001 0.525616 178.786048 -0.220876 -0.000005 -0.000004 -1.160750 -10.565276 1.947864 0.491132 -0.000011 0.000003 -0.171397 70.042791 -6.882508 -2.078336 25.456948 7.355613 -0.000010 
50.825195 -29.233919 84.722977 -6.313359 -0.767579 -1.239671 -1.433415 0.053573 0.003350 1.135982 0.108800 0.008539 2.781055 0.108896 0.016675 17.982964 0.668570 -1.021598 3.228969 -2.210708 -0.829235 3.012194 -80.968430 0.730539 -64.261500 -108.738101 -62.948280 -0.000000 -0.000000 -0.000000 -0.026527 3.635611 -1.990668 0.000005 0.000005 -3.011611 -5.000172 -7.999931 0.000035 -10.148032 68.160923 12.435379 -34.855463 116.959627 43.102605 0.000000 0.000003 0.000001 -0.024982 -3.643651 1.990831 -0.000005 -0.000010 3.011610 -5.000153 7.999947 -0.000014 0.282368 -176.981034 4.019741 -179.999991 0.000005 -1.174996 171.413064 -2.262380 -0.499527 0.000003 -0.000002 0.104145 68.990402 6.912174 2.079504 25.456962 -7.355618 0.000001 0.498179 178.784040 -0.218299 -0.000005 -0.000004 -1.160800 -10.581969 1.945311 0.491299 -0.000011 0.000003 -0.171338 70.043747 -6.882499 -2.078374 25.456947 7.355612 -0.000010 
50.829296 -29.227327 84.713478 -6.302873 -0.764480 -1.237016 -1.432683 0.053359 0.003350 1.137442 0.108201 0.008540 2.782515 0.108296 0.016786 17.976366 0.669421 -1.020909 3.234069 -2.210327 -0.828631 2.986166 -80.976045 0.702432 -64.295733 -108.748319 -62.981816 0.000001 0.000000 0.000000 -0.026523 3.635611 -1.990667 0.000003 0.000005 -3.011610 -5.000172 -7.999930 0.000035 -10.154985 68.157454 12.442996 -34.866340 116.971771 43.121125 0.000003 0.000003 0.000000 -0.024978 -3.643651 1.990832 -0.000007 -0.000009 3.011609 -5.000154 7.999948 -0.000012 0.264983 -176.989025 4.011709 -179.999991 0.000005 -1.174996 171.412722 -2.259406 -0.498081 0.000004 -0.000002 0.104145 68.987349 6.912181 2.079396 25.456962 -7.355619 0.000001 0.470994 178.782046 -0.215733 -0.000005 -0.000004 -1.160860 -10.598564 1.942807 0.491451 -0.000011 0.000003 -0.171274 70.044703 -6.882526 -2.078321 25.456947 7.355613 -0.000010 
50.831898 -29.227327 84.715378 -6.292405 -0.761395 -1.234365 -1.431954 0.053150 0.003351 1.138903 0.107611 0.008540 2.783974 0.107706 0.016900 17.969767 0.670240 -1.020221 3.239201 -2.209917 -0.828029 2.960084 -80.983763 0.674255 -64.330062 -108.758646 -63.015373 -0.000002 0.000000 -0.000000 -0.026528 3.635611 -1.990668 0.000005 0.000005 -3.011610 -5.000173 -7.999930 0.000035 -10.161962 68.153984 12.450638 -34.878323 116.983109 43.140998 0.000001 0.000003 0.000001 -0.024978 -3.643650 1.990833 -0.000006 -0.000010 3.011610 -5.000155 7.999948 -0.000012 0.247648 -176.997044 4.003713 -179.999991 0.000005 -1.174996 171.412395 -2.257431 -0.496800 0.000004 -0.000002 0.104145 68.984187 6.912180 2.079494 25.456962 -7.355619 0.000000 0.443869 178.780024 -0.213169 -0.000005 -0.000004 -1.160930 -10.615156 1.940323 0.491600 -0.000010 0.000003 -0.171208 70.045659 -6.882515 -2.078260 25.456945 7.355612 -0.000009 
50.824398 -29.225229 84.719078 -6.281893 -0.758277 -1.231700 -1.431219 0.052932 0.003351 1.140362 0.107003 0.008541 2.785434 0.107096 0.017008 17.963276 0.671120 -1.019530 3.244275 -2.209547 -0.827426 2.933959 -80.991290 0.646051 -64.363973 -108.768918 -63.048636 0.000000 0.000000 0.000000 -0.026525 3.635610 -1.990668 0.000006 0.000005 -3.011610 -5.000174 -7.999930 0.000035 -10.168859 68.150528 12.458191 -34.889183 116.995267 43.159583 0.000002 0.000003 0.000000 -0.024976 -3.643651 1.990832 -0.000004 -0.000010 3.011609 -5.000153 7.999949 -0.000012 0.230206 -177.005022 3.995658 -179.999991 0.000005 -1.173985 171.411998 -2.255457 -0.496517 0.000004 -0.000002 0.104145 68.981127 6.912187 2.079386 25.456965 -7.355616 0.000001 0.416623 178.778030 -0.210597 -0.000005 -0.000004 -1.160990 -10.631750 1.937800 0.491750 -0.000010 0.000003 -0.171145 70.046616 -6.882507 -2.078299 25.456948 7.355612 -0.000010 
50.825294 -29.212122 84.716568 -6.271257 -0.755078 -1.229006 -1.430471 0.052688 0.003351 1.141854 0.106347 0.008541 2.786934 0.106440 0.017103 17.956873 0.672152 -1.018832 3.249198 -2.209276 -0.826816 2.907910 -80.998599 0.617961 -64.397298 -108.779519 -63.081564 -0.000000 0.000000 -0.000000 -0.026523 3.635611 -1.990668 0.000004 0.000005 -3.011609 -5.000173 -7.999930 0.000035 -10.175583 68.147174 12.465556 -34.900405 117.007534 43.178506 0.000001 0.000003 0.000000 -0.024975 -3.643651 1.990831 -0.000008 -0.000010 3.011610 -5.000155 7.999948 -0.000013 0.212495 -177.013027 3.987433 -179.999991 0.000005 -1.173986 171.411452 -2.252482 -0.495093 0.000004 -0.000002 0.104145 68.978053 6.912158 2.079473 25.456962 -7.355618 0.000001 0.389066 178.776021 -0.208006 -0.000005 -0.000004 -1.161030 -10.648545 1.935216 0.491920 -0.000011 0.000003 -0.171089 70.047565 -6.882496 -2.078338 25.456950 7.355613 -0.000010 
50.830696 -29.201830 84.717674 -6.260411 -0.751751 -1.226267 -1.429703 0.052405 0.003351 1.143383 0.105616 0.008542 2.788464 0.105709 0.017176 17.950685 0.673424 -1.018119 3.253892 -2.209156 -0.826197 2.881913 -81.005313 0.589983 -64.429420 -108.790427 -63.113680 -0.000002 0.000000 0.000000 -0.026524 3.635611 -1.990668 0.000003 0.000005 -3.011609 -5.000174 -7.999931 0.000035 -10.182065 68.143944 12.472655 -34.913110 117.019077 43.198921 0.000003 0.000003 0.000001 -0.024978 -3.643650 1.990831 -0.000005 -0.000009 3.011611 -5.000156 7.999950 -0.000012 0.194353 -177.021018 3.978940 -179.999991 0.000005 -1.173986 171.410660 -2.250505 -0.493830 0.000004 -0.000002 0.104145 68.974993 6.912163 2.079465 25.456960 -7.355620 0.000000 0.361019 178.773030 -0.205392 -0.000005 -0.000004 -1.161060 -10.665638 1.932523 0.492117 -0.000010 0.000003 -0.171046 70.048528 -6.882522 -2.078184 25.456952 7.355613 -0.000010 
50.822197 -29.221132 84.722168 -6.249286 -0.748245 -1.223455 -1.428911 0.052067 0.003351 1.144972 0.104783 0.008542 2.790044 0.104875 0.017221 17.944785 0.675030 -1.017389 3.258254 -2.209236 -0.825565 2.856076 -81.011419 0.562250 -64.459781 -108.801724 -63.144600 0.000000 -0.000000 -0.000000 -0.026527 3.635610 -1.990668 0.000006 0.000005 -3.011610 -5.000175 -7.999930 0.000035 -10.188202 68.140931 12.479372 -34.926377 117.030784 43.220013 0.000002 0.000003 0.000000 -0.024975 -3.643650 1.990833 -0.000006 -0.000009 3.011609 -5.000154 7.999948 -0.000012 0.175622 -177.030020 3.970060 -179.999991 0.000005 -1.173985 171.409567 -2.247528 -0.493423 0.000004 -0.000002 0.104145 68.971838 6.912196 2.079367 25.456965 -7.355617 0.000001 0.332302 178.771008 -0.202731 -0.000005 -0.000004 -1.161070 -10.683130 1.929680 0.492353 -0.000010 0.000003 -0.171021 70.049478 -6.882515 -2.078223 25.456945 7.355613 -0.000010 
50.819096 -29.212729 84.710381 -6.237817 -0.744514 -1.220556 -1.428082 0.051659 0.003351 1.146623 0.103818 0.008542 2.791703 0.103910 0.017227 17.939292 0.677058 -1.016637 3.262217 -2.209597 -0.824917 2.830416 -81.016624 0.534795 -64.488153 -108.813690 -63.174243 -0.000001 0.000000 -0.000000 -0.026525 3.635611 -1.990667 0.000005 0.000005 -3.011610 -5.000174 -7.999930 0.000035 -10.193831 68.138056 12.485539 -34.939256 117.043529 43.240405 0.000002 0.000004 0.000001 -0.024976 -3.643650 1.990832 -0.000006 -0.000010 3.011609 -5.000155 7.999948 -0.000014 0.156138 -177.039009 3.960716 -179.999991 0.000005 -1.173985 171.408051 -2.244547 -0.492038 0.000004 -0.000002 0.104145 68.968771 6.912168 2.079455 25.456965 -7.355619 0.000001 0.302724 178.768016 -0.200026 -0.000005 -0.000004 -1.161040 -10.701222 1.926647 0.492641 -0.000010 0.000003 -0.171017 70.050434 -6.882504 -2.078263 25.456950 7.355614 -0.000010 
50.806194 -29.184622 84.710579 -6.225912 -0.740509 -1.217562 -1.427218 0.051167 0.003351 1.148362 0.102694 0.008542 2.793434 0.102786 0.017189 17.934207 0.679601 -1.015857 3.265682 -2.210268 -0.824247 2.805016 -81.020817 0.507737 -64.514094 -108.826265 -63.202336 -0.000001 -0.000000 0.000000 -0.026526 3.635611 -1.990668 0.000003 0.000005 -3.011609 -5.000173 -7.999930 0.000035 -10.198908 68.135406 12.491086 -34.954173 117.055714 43.262862 -0.000000 0.000003 0.000002 -0.024979 -3.643651 1.990832 -0.000007 -0.000010 3.011610 -5.000153 7.999948 -0.000012 0.135742 -177.048994 3.950788 -179.999991 0.000005 -1.173985 171.406042 -2.240591 -0.491521 0.000004 -0.000002 0.104145 68.965704 6.912173 2.079446 25.456962 -7.355619 0.000000 0.272110 178.765011 -0.197260 -0.000005 -0.000004 -1.160980 -10.719911 1.923374 0.492987 -0.000011 0.000003 -0.171039 70.051376 -6.882494 -2.078302 25.456945 7.355613 -0.000010 
